HIERARCHY
ROOT hip
{
  OFFSET 0 0 0
  CHANNELS 6 Xposition Yposition Zposition Zrotation Yrotation Xrotation
  JOINT abdomen
  {
    OFFSET 0 20.6881 -0.73152
    CHANNELS 3 Zrotation Xrotation Yrotation
    JOINT chest
    {
      OFFSET 0 11.7043 -0.48768
      CHANNELS 3 Zrotation Xrotation Yrotation
      JOINT neck
      {
        OFFSET 0 22.1894 -2.19456
        CHANNELS 3 Zrotation Xrotation Yrotation
        JOINT head
        {
          OFFSET -0.24384 7.07133 1.2192
          CHANNELS 3 Zrotation Xrotation Yrotation
          JOINT leftEye
          {
            OFFSET 4.14528 8.04674 8.04672
            CHANNELS 3 Zrotation Xrotation Yrotation
            End Site
            {
              OFFSET 1 0 0
            }
          }
          JOINT rightEye
          {
            OFFSET -3.6576 8.04674 8.04672
            CHANNELS 3 Zrotation Xrotation Yrotation
            End Site
            {
              OFFSET 1 0 0
            }
          }
        }
      }
      JOINT rCollar
      {
        OFFSET -2.68224 19.2634 -4.8768
        CHANNELS 3 Zrotation Xrotation Yrotation
        JOINT rShldr
        {
          OFFSET -8.77824 -1.95073 1.46304
          CHANNELS 3 Zrotation Xrotation Yrotation
          JOINT rForeArm
          {
            OFFSET -28.1742 -1.7115 0.48768
            CHANNELS 3 Zrotation Xrotation Yrotation
            JOINT rHand
            {
              OFFSET -22.5879 0.773209 7.07136
              CHANNELS 3 Zrotation Xrotation Yrotation
              JOINT rThumb1
              {
                OFFSET -1.2192 -0.487915 3.41376
                CHANNELS 3 Zrotation Xrotation Yrotation
                JOINT rThumb2
                {
                  OFFSET -3.37035 -0.52449 3.41376
                  CHANNELS 3 Zrotation Xrotation Yrotation
                  End Site
                  {
                    OFFSET -1.78271 -1.18214 1.43049
                  }
                }
              }
              JOINT rIndex1
              {
                OFFSET -7.75947 0.938293 5.60832
                CHANNELS 3 Zrotation Xrotation Yrotation
                JOINT rIndex2
                {
                  OFFSET -2.54057 -0.884171 1.56538
                  CHANNELS 3 Zrotation Xrotation Yrotation
                  End Site
                  {
                    OFFSET -1.62519 -0.234802 1.16502
                  }
                }
              }
              JOINT rMid1
              {
                OFFSET -8.24714 1.18213 3.41376
                CHANNELS 3 Zrotation Xrotation Yrotation
                JOINT rMid2
                {
                  OFFSET -3.10165 -0.590103 1.0647
                  CHANNELS 3 Zrotation Xrotation Yrotation
                  End Site
                  {
                    OFFSET -2.48547 -0.328903 0.83742
                  }
                }
              }
              JOINT rRing1
              {
                OFFSET -8.82822 0.546677 1.51678
                CHANNELS 3 Zrotation Xrotation Yrotation
                JOINT rRing2
                {
                  OFFSET -2.60934 -0.819778 -0.0198488
                  CHANNELS 3 Zrotation Xrotation Yrotation
                  End Site
                  {
                    OFFSET -2.33842 -0.294052 0.168128
                  }
                }
              }
              JOINT rPinky1
              {
                OFFSET -8.27202 -0.0477905 -0.4584
                CHANNELS 3 Zrotation Xrotation Yrotation
                JOINT rPinky2
                {
                  OFFSET -1.82734 -0.647385 -0.700984
                  CHANNELS 3 Zrotation Xrotation Yrotation
                  End Site
                  {
                    OFFSET -1.69225 -0.51767 -0.607171
                  }
                }
              }
            }
          }
        }
      }
      JOINT lCollar
      {
        OFFSET 2.68224 19.2634 -4.8768
        CHANNELS 3 Zrotation Xrotation Yrotation
        JOINT lShldr
        {
          OFFSET 8.77824 -1.95073 1.46304
          CHANNELS 3 Zrotation Xrotation Yrotation
          JOINT lForeArm
          {
            OFFSET 28.1742 -1.7115 0.48768
            CHANNELS 3 Zrotation Xrotation Yrotation
            JOINT lHand
            {
              OFFSET 22.5879 0.773209 7.07136
              CHANNELS 3 Zrotation Xrotation Yrotation
              JOINT lThumb1
              {
                OFFSET 1.2192 -0.487915 3.41376
                CHANNELS 3 Zrotation Xrotation Yrotation
                JOINT lThumb2
                {
                  OFFSET 3.37035 -0.52449 3.41376
                  CHANNELS 3 Zrotation Xrotation Yrotation
                  End Site
                  {
                    OFFSET 1.78271 -1.18214 1.43049
                  }
                }
              }
              JOINT lIndex1
              {
                OFFSET 7.75947 0.938293 5.60832
                CHANNELS 3 Zrotation Xrotation Yrotation
                JOINT lIndex2
                {
                  OFFSET 2.54057 -0.884171 1.56538
                  CHANNELS 3 Zrotation Xrotation Yrotation
                  End Site
                  {
                    OFFSET 1.62519 -0.234802 1.16502
                  }
                }
              }
              JOINT lMid1
              {
                OFFSET 8.24714 1.18213 3.41376
                CHANNELS 3 Zrotation Xrotation Yrotation
                JOINT lMid2
                {
                  OFFSET 3.10165 -0.590103 1.0647
                  CHANNELS 3 Zrotation Xrotation Yrotation
                  End Site
                  {
                    OFFSET 2.48547 -0.328903 0.83742
                  }
                }
              }
              JOINT lRing1
              {
                OFFSET 8.82822 0.546677 1.51678
                CHANNELS 3 Zrotation Xrotation Yrotation
                JOINT lRing2
                {
                  OFFSET 2.60934 -0.819778 -0.0198488
                  CHANNELS 3 Zrotation Xrotation Yrotation
                  End Site
                  {
                    OFFSET 2.33842 -0.294052 0.168128
                  }
                }
              }
              JOINT lPinky1
              {
                OFFSET 8.27202 -0.0477905 -0.4584
                CHANNELS 3 Zrotation Xrotation Yrotation
                JOINT lPinky2
                {
                  OFFSET 1.82734 -0.647385 -0.700984
                  CHANNELS 3 Zrotation Xrotation Yrotation
                  End Site
                  {
                    OFFSET 1.69225 -0.51767 -0.607171
                  }
                }
              }
            }
          }
        }
      }
    }
  }
  JOINT rButtock
  {
    OFFSET -8.77824 4.35084 1.2192
    CHANNELS 3 Zrotation Xrotation Yrotation
    JOINT rThigh
    {
      OFFSET 0 -1.70687 -2.19456
      CHANNELS 3 Zrotation Xrotation Yrotation
      JOINT rShin
      {
        OFFSET 0 -36.8199 0.73152
        CHANNELS 3 Zrotation Xrotation Yrotation
        JOINT rFoot
        {
          OFFSET 0.73152 -45.1104 -5.12064
          CHANNELS 3 Zrotation Xrotation Yrotation
          End Site
          {
            OFFSET -1.1221 -3.69964 12.103
          }
        }
      }
    }
  }
  JOINT lButtock
  {
    OFFSET 8.77824 4.35084 1.2192
    CHANNELS 3 Zrotation Xrotation Yrotation
    JOINT lThigh
    {
      OFFSET 0 -1.70687 -2.19456
      CHANNELS 3 Zrotation Xrotation Yrotation
      JOINT lShin
      {
        OFFSET 0 -36.8199 0.73152
        CHANNELS 3 Zrotation Xrotation Yrotation
        JOINT lFoot
        {
          OFFSET -0.73152 -45.1104 -5.12064
          CHANNELS 3 Zrotation Xrotation Yrotation
          End Site
          {
            OFFSET 1.1221 -3.69964 12.103
          }
        }
      }
    }
  }
}
MOTION
Frames:	7
Frame Time:	0.00833333
30.2694 67.9263 -24.8141 -179.189 97.962 -156.693 -10.9758 41.0598 3.84203 -0.017409 -11.2232 0.232033 3.60017 -18.3879 7.91533 -19.2991 -4.22487 13.6222 -0.0 0.0 0.0 -0.0 0.0 0.0 -1.49454e-13 2.23374e-12 5.64548e-14 63.8484 46.3903 22.561 -15.4329 -8.17086 28.4844 -4.43505 -49.7356 -9.55119 1.98811e-09 -7.02449e-11 -8.71024e-10 3.46591e-09 -2.30775e-10 -1.42898e-09 1.98811e-09 -7.02433e-11 -8.7103e-10 7.73091 5.47488 0.417314 1.98811e-09 -7.02441e-11 -8.7102e-10 2.90554 0.965183 0.102902 1.98811e-09 -7.02448e-11 -8.71024e-10 10.2786 0.731801 0.0259123 1.9881e-09 -7.0243e-11 -8.7102e-10 2.22167 -0.733487 -0.20892 -1.49528e-13 2.23375e-12 5.64052e-14 30.4266 40.6345 -123.423 17.0481 -9.69861 -31.9181 0.00750878 -2.47338 0.347829 2.33369e-09 1.00828e-08 2.06507e-10 4.03826e-09 1.74492e-08 3.55172e-10 2.33368e-09 1.00828e-08 2.06513e-10 -7.73091 5.47488 -0.417314 2.33369e-09 1.00828e-08 2.06504e-10 -2.90554 0.965183 -0.102902 2.33368e-09 1.00828e-08 2.06502e-10 -10.2786 0.731801 -0.0259123 2.33369e-09 1.00828e-08 2.06501e-10 -2.22167 -0.733487 0.20892 -2.03217e-16 0.0 -3.88251e-19 -25.3615 -36.1079 -10.2542 -0.654062 58.4234 2.57228 -12.2897 -22.197 -26.82 2.03217e-16 0.0 3.88251e-19 42.2666 -75.0626 41.7662 1.85748 69.0697 -2.50321 -0.93731 -7.04322 -2.5015
30.9807 68.4056 -25.3381 -182.431 98.1064 -159.619 -10.7816 40.5654 4.06905 -0.068485 -11.1831 0.303236 3.41749 -18.3465 7.70204 -18.5658 -4.67129 13.2405 -0.0 0.0 0.0 -0.0 0.0 0.0 -7.72033e-14 6.79231e-13 -2.26184e-14 64.1544 45.6071 22.6629 -14.8217 -7.63918 27.2218 -3.6637 -46.6152 -8.53275 1.931e-09 -1.2143e-10 -1.56908e-10 3.34817e-09 -3.16608e-10 -2.00886e-10 1.931e-09 -1.21429e-10 -1.56913e-10 7.73091 5.47488 0.417314 1.931e-09 -1.2143e-10 -1.56904e-10 2.90554 0.965183 0.102902 1.931e-09 -1.21431e-10 -1.56907e-10 10.2786 0.731801 0.0259123 1.93099e-09 -1.21429e-10 -1.56902e-10 2.22167 -0.733487 -0.20892 -7.72649e-14 6.7924e-13 -2.2663e-14 30.8342 40.7658 -123.205 17.5541 -10.2212 -33.0149 0.00848656 -2.57322 0.361915 1.99138e-09 8.88642e-09 2.99178e-10 3.44598e-09 1.53792e-08 5.16506e-10 1.99138e-09 8.88643e-09 2.99186e-10 -7.73091 5.47488 -0.417314 1.99138e-09 8.88643e-09 2.99177e-10 -2.90554 0.965183 -0.102902 1.99137e-09 8.88643e-09 2.99176e-10 -10.2786 0.731801 -0.0259123 1.99139e-09 8.88642e-09 2.99176e-10 -2.22167 -0.733487 0.20892 -2.03217e-16 0.0 -3.88251e-19 -24.7759 -35.5503 -10.2237 -0.588241 56.9262 2.47658 -12.2745 -21.8046 -27.1483 2.03217e-16 0.0 3.88251e-19 40.7656 -74.8036 40.2171 1.83158 68.8677 -2.47493 -0.881645 -7.62787 -2.30236
31.6789 68.8843 -25.8486 -184.975 98.3015 -161.899 -10.4959 39.8918 4.40257 -0.194804 -11.1247 0.404914 3.0398 -18.1384 7.3406 -17.7237 -5.24173 12.6762 -0.0 0.0 0.0 -0.0 0.0 0.0 2.79706e-14 -1.60015e-12 -1.54589e-13 64.7336 44.5539 22.4326 -14.1931 -7.12002 25.9297 -2.93942 -43.0083 -7.5091 1.61942e-09 -1.72898e-10 8.7253e-10 2.7835e-09 -3.81608e-10 1.56139e-09 1.61943e-09 -1.72898e-10 8.72523e-10 7.73091 5.47488 0.417314 1.61942e-09 -1.72898e-10 8.72533e-10 2.90554 0.965183 0.102902 1.61943e-09 -1.72899e-10 8.72532e-10 10.2786 0.731801 0.0259123 1.61942e-09 -1.72899e-10 8.72537e-10 2.22167 -0.733487 -0.20892 2.79363e-14 -1.60014e-12 -1.54648e-13 31.3157 40.912 -123.086 18.1143 -10.8103 -34.2866 0.00962547 -2.65611 0.373636 1.19577e-09 5.81576e-09 3.8091e-10 2.06962e-09 1.00661e-08 6.59401e-10 1.19577e-09 5.81577e-09 3.80922e-10 -7.73091 5.47488 -0.417314 1.19577e-09 5.81577e-09 3.80913e-10 -2.90554 0.965183 -0.102902 1.19576e-09 5.81577e-09 3.80913e-10 -10.2786 0.731801 -0.0259123 1.19577e-09 5.81577e-09 3.80914e-10 -2.22167 -0.733487 0.20892 -2.03217e-16 0.0 -3.88251e-19 -24.1894 -35.0776 -10.3248 -0.526612 55.3323 2.3801 -12.2213 -21.5915 -27.2714 2.03217e-16 0.0 3.88251e-19 39.3182 -74.5497 38.6464 1.79014 68.5443 -2.43315 -0.781209 -8.20475 -1.96303
32.3836 69.3102 -26.3175 -187.958 98.7095 -164.586 -10.2499 39.1263 4.78934 -0.308975 -11.0496 0.520131 2.60089 -17.8783 6.93835 -16.8598 -5.86472 12.0695 -0.0 0.0 0.0 -0.0 0.0 0.0 1.22451e-13 -3.61462e-12 -2.70479e-13 65.2735 43.5726 22.1309 -13.6525 -6.68586 24.8421 -2.34023 -39.2816 -6.5871 1.23309e-09 -1.98215e-10 1.8168e-09 2.0919e-09 -3.94765e-10 3.17385e-09 1.23309e-09 -1.98216e-10 1.81679e-09 7.73091 5.47488 0.417314 1.23309e-09 -1.98216e-10 1.8168e-09 2.90554 0.965183 0.102902 1.23309e-09 -1.98216e-10 1.8168e-09 10.2786 0.731801 0.0259123 1.23309e-09 -1.98217e-10 1.81681e-09 2.22167 -0.733487 -0.20892 1.22438e-13 -3.61461e-12 -2.7056e-13 31.7747 41.094 -122.865 18.7186 -11.4751 -35.6799 0.0108685 -2.83054 0.398214 3.75632e-10 2.5981e-09 4.15866e-10 6.50949e-10 4.49906e-09 7.21377e-10 3.75632e-10 2.5981e-09 4.15882e-10 -7.73091 5.47488 -0.417314 3.75633e-10 2.5981e-09 4.15873e-10 -2.90554 0.965183 -0.102902 3.75624e-10 2.5981e-09 4.15874e-10 -10.2786 0.731801 -0.0259123 3.75637e-10 2.5981e-09 4.15876e-10 -2.22167 -0.733487 0.20892 -2.03217e-16 0.0 -3.88251e-19 -23.5995 -34.7179 -10.4508 -0.473589 53.7713 2.28858 -12.1017 -21.4261 -27.229 2.03217e-16 0.0 3.88251e-19 37.9014 -74.2633 37.0652 1.74003 68.1429 -2.3843 -0.649836 -8.7559 -1.53768
32.8737 69.6923 -26.7445 -190.262 99.0206 -166.287 -10.1801 38.3564 5.17942 -0.323538 -10.9591 0.631964 2.2301 -17.6824 6.60106 -16.0529 -6.46742 11.5609 -0.0 0.0 0.0 -0.0 0.0 0.0 1.62619e-13 -4.37436e-12 -3.01308e-13 65.4916 43.009 21.9884 -13.3176 -6.41673 24.1908 -1.88138 -35.8072 -5.81912 9.5169e-10 -1.70947e-10 2.27541e-09 1.59338e-09 -3.25072e-10 3.95249e-09 9.51696e-10 -1.70948e-10 2.27541e-09 7.73091 5.47488 0.417314 9.5169e-10 -1.70948e-10 2.27542e-09 2.90554 0.965183 0.102902 9.51696e-10 -1.70948e-10 2.27542e-09 10.2786 0.731801 0.0259123 9.51689e-10 -1.7095e-10 2.27542e-09 2.22167 -0.733487 -0.20892 1.62603e-13 -4.37435e-12 -3.01407e-13 32.1107 41.3284 -122.339 19.3577 -12.2248 -37.1426 0.0126145 -3.20497 0.450904 -4.02372e-11 9.60673e-10 3.6821e-10 -6.82197e-11 1.66708e-09 6.39954e-10 -4.02376e-11 9.60676e-10 3.68229e-10 -7.73091 5.47488 -0.417314 -4.02357e-11 9.60677e-10 3.68219e-10 -2.90554 0.965183 -0.102902 -4.02451e-11 9.60678e-10 3.6822e-10 -10.2786 0.731801 -0.0259123 -4.0231e-11 9.6068e-10 3.68222e-10 -2.22167 -0.733487 0.20892 -2.03217e-16 0.0 -3.88251e-19 -23.0075 -34.4988 -10.4969 -0.431256 52.3725 2.20531 -11.8859 -21.177 -27.0611 2.03217e-16 0.0 3.88251e-19 36.506 -73.9068 35.499 1.6875 67.7066 -2.33425 -0.504197 -9.26332 -1.08085
33.5364 70.16 -27.0901 -192.534 99.7577 -168.477 -10.3649 37.5829 5.58981 -0.190357 -10.8637 0.741939 1.94078 -17.5909 6.34837 -15.3002 -7.05573 11.1834 -0.0 0.0 0.0 -0.0 0.0 0.0 1.14391e-13 -3.09004e-12 -1.93502e-13 65.2853 43.0008 22.0601 -13.2369 -6.34343 24.0549 -1.49329 -32.4831 -5.13502 8.31719e-10 -5.86789e-11 2.00457e-09 1.39139e-09 -1.1959e-10 3.47844e-09 8.31725e-10 -5.86806e-11 2.00456e-09 7.73091 5.47488 0.417314 8.31718e-10 -5.86808e-11 2.00457e-09 2.90554 0.965183 0.102902 8.31725e-10 -5.86809e-11 2.00457e-09 10.2786 0.731801 0.0259123 8.31718e-10 -5.86819e-11 2.00457e-09 2.22167 -0.733487 -0.20892 1.14323e-13 -3.09003e-12 -1.93613e-13 32.3512 41.5009 -121.469 20.0406 -13.0761 -38.731 0.0169427 -3.88076 0.54613 1.9057e-10 1.836e-09 1.74399e-10 3.31596e-10 3.1843e-09 3.05201e-10 1.90568e-10 1.83601e-09 1.74419e-10 -7.73091 5.47488 -0.417314 1.90571e-10 1.83601e-09 1.74409e-10 -2.90554 0.965183 -0.102902 1.90562e-10 1.83601e-09 1.7441e-10 -10.2786 0.731801 -0.0259123 1.90576e-10 1.83601e-09 1.74411e-10 -2.22167 -0.733487 0.20892 -2.03217e-16 0.0 -3.88251e-19 -22.4173 -34.48 -10.4397 -0.397973 51.1632 2.12697 -11.5322 -20.7928 -26.7234 2.03217e-16 0.0 3.88251e-19 35.2075 -73.4981 34.0078 1.63371 67.2452 -2.28515 -0.339083 -9.70978 -0.571714
34.0478 70.5845 -27.4248 -193.8 100.318 -169.424 -10.7128 36.7665 6.03472 0.0355027 -10.759 0.857043 1.66969 -17.5391 6.12628 -14.5652 -7.6596 10.8637 -0.0 0.0 0.0 -0.0 0.0 0.0 8.51254e-15 -4.64677e-13 4.42295e-15 64.8171 43.348 22.2197 -13.355 -6.42829 24.3021 -1.15826 -29.1808 -4.49757 7.74478e-10 1.16035e-10 1.26352e-09 1.30921e-09 1.90254e-10 2.19534e-09 7.74484e-10 1.16033e-10 1.26352e-09 7.73091 5.47488 0.417314 7.74476e-10 1.16033e-10 1.26353e-09 2.90554 0.965183 0.102902 7.74485e-10 1.16033e-10 1.26352e-09 10.2786 0.731801 0.0259123 7.74477e-10 1.16033e-10 1.26353e-09 2.22167 -0.733487 -0.20892 8.36295e-15 -4.64673e-13 4.30183e-15 32.5269 41.6264 -120.358 20.7431 -13.9927 -40.4608 0.0259143 -4.77587 0.672615 7.96678e-10 4.14559e-09 -1.28458e-10 1.38088e-09 7.1842e-09 -2.1847e-10 7.96673e-10 4.14559e-09 -1.28438e-10 -7.73091 5.47488 -0.417314 7.96679e-10 4.14559e-09 -1.28447e-10 -2.90554 0.965183 -0.102902 7.9667e-10 4.14559e-09 -1.28448e-10 -10.2786 0.731801 -0.0259123 7.96683e-10 4.14559e-09 -1.28448e-10 -2.22167 -0.733487 0.20892 -2.03217e-16 0.0 -3.88251e-19 -21.8273 -34.629 -10.3332 -0.371044 50.0769 2.05054 -11.075 -20.3448 -26.2163 2.03217e-16 0.0 3.88251e-19 34.0007 -73.0481 32.5763 1.57631 66.7362 -2.2345 -0.147921 -10.1084 0.00736681
